ffmpeg version N-83507-g8fa18e0 Copyright (c) 2000-2017 the FFmpeg developers
  built with gcc 5.4.0 (GCC)
  configuration: --enable-gpl --enable-version3 --enable-cuda --enable-cuvid --enable-d3d11va --enable-dxva2 --enable-libmfx --enable-nvenc --enable-avisynth --enable-bzlib --enable-fontconfig --enable-frei0r --enable-gnutls --enable-iconv --enable-libass --enable-libbluray --enable-libbs2b --enable-libcaca --enable-libfreetype --enable-libgme --enable-libgsm --enable-libilbc --enable-libmodplug --enable-libmp3lame --enable-libopencore-amrnb --enable-libopencore-amrwb --enable-libopenh264 --enable-libopenjpeg --enable-libopus --enable-librtmp --enable-libsnappy --enable-libsoxr --enable-libspeex --enable-libtheora --enable-libtwolame --enable-libvidstab --enable-libvo-amrwbenc --enable-libvorbis --enable-libvpx --enable-libwavpack --enable-libwebp --enable-libx264 --enable-libx265 --enable-libxavs --enable-libxvid --enable-libzimg --enable-lzma --enable-zlib
  libavutil      55. 47.100 / 55. 47.100
  libavcodec     57. 80.100 / 57. 80.100
  libavformat    57. 66.102 / 57. 66.102
  libavdevice    57.  2.100 / 57.  2.100
  libavfilter     6. 73.100 /  6. 73.100
  libswscale      4.  3.101 /  4.  3.101
  libswresample   2.  4.100 /  2.  4.100
  libpostproc    54.  2.100 / 54.  2.100
Input #0, image2pipe, from 'pipe:':
  Duration: N/A, bitrate: N/A
    Stream #0:0: Video: ppm, rgb24, 320x240, 20 fps, 20 tbr, 20 tbn, 20 tbc
[libx264 @ 0000000002833180] using cpu capabilities: MMX2 SSE2Fast SSSE3 SSE4.2 AVX FMA3 AVX2 LZCNT BMI2
[libx264 @ 0000000002833180] profile High, level 1.3
[libx264 @ 0000000002833180] 264 - core 148 r2762 90a61ec - H.264/MPEG-4 AVC codec - Copyleft 2003-2017 - http://www.videolan.org/x264.html - options: cabac=1 ref=3 deblock=1:0:0 analyse=0x3:0x113 me=hex subme=7 psy=1 psy_rd=1.00:0.00 mixed_ref=1 me_range=16 chroma_me=1 trellis=1 8x8dct=1 cqm=0 deadzone=21,11 fast_pskip=1 chroma_qp_offset=-2 threads=7 lookahead_threads=1 sliced_threads=0 nr=0 decimate=1 interlaced=0 bluray_compat=0 constrained_intra=0 bframes=3 b_pyramid=2 b_adapt=1 b_bias=0 direct=1 weightb=1 open_gop=0 weightp=2 keyint=250 keyint_min=20 scenecut=40 intra_refresh=0 rc_lookahead=40 rc=abr mbtree=1 bitrate=400 ratetol=1.0 qcomp=0.60 qpmin=0 qpmax=69 qpstep=4 ip_ratio=1.40 aq=1:1.00
Output #0, mp4, to '.\mission_records\5080ec6b-1308-41b8-9c7f-8b53fb51b20a\video.mp4':
  Metadata:
    encoder         : Lavf57.66.102
    Stream #0:0: Video: h264 (libx264) ([33][0][0][0] / 0x0021), yuv420p, 320x240, q=-1--1, 400 kb/s, 20 fps, 10240 tbn, 20 tbc
    Metadata:
      encoder         : Lavc57.80.100 libx264
    Side data:
      cpb: bitrate max/min/avg: 0/0/400000 buffer size: 0 vbv_delay: -1
Stream mapping:
  Stream #0:0 -> #0:0 (ppm (native) -> h264 (libx264))
frame=    8 fps=0.0 q=-1.0 Lsize=      28kB time=00:00:00.25 bitrate= 903.6kbits/s speed=8.31x    
video:27kB audio:0kB subtitle:0kB other streams:0kB global headers:0kB muxing overhead: 3.404224%
[libx264 @ 0000000002833180] frame I:1     Avg QP:25.62  size:  8190
[libx264 @ 0000000002833180] frame P:3     Avg QP:28.96  size:  1790
[libx264 @ 0000000002833180] frame B:4     Avg QP:29.10  size:  3264
[libx264 @ 0000000002833180] consecutive B-frames: 25.0% 25.0%  0.0% 50.0%
[libx264 @ 0000000002833180] mb I  I16..4:  6.3% 69.7% 24.0%
[libx264 @ 0000000002833180] mb P  I16..4:  0.0%  1.9%  2.4%  P16..4: 44.2% 17.4%  9.4%  0.0%  0.0%    skip:24.6%
[libx264 @ 0000000002833180] mb B  I16..4:  0.5%  7.1%  3.9%  B16..8: 23.5%  6.9%  4.5%  direct:22.5%  skip:31.1%  L0:58.1% L1:33.1% BI: 8.8%
[libx264 @ 0000000002833180] final ratefactor: 26.20
[libx264 @ 0000000002833180] 8x8 transform intra:65.2% inter:59.1%
[libx264 @ 0000000002833180] coded y,uvDC,uvAC intra: 92.4% 73.2% 59.5% inter: 41.9% 24.8% 6.1%
[libx264 @ 0000000002833180] i16 v,h,dc,p:  0% 88%  0% 12%
[libx264 @ 0000000002833180] i8 v,h,dc,ddl,ddr,vr,hd,vl,hu:  7% 15% 25%  9%  7%  5% 12%  7% 13%
[libx264 @ 0000000002833180] i4 v,h,dc,ddl,ddr,vr,hd,vl,hu: 14% 23% 14%  7% 11%  6% 12%  5%  8%
[libx264 @ 0000000002833180] i8c dc,h,v,p: 62% 23% 12%  3%
[libx264 @ 0000000002833180] Weighted P-Frames: Y:33.3% UV:0.0%
[libx264 @ 0000000002833180] ref P L0: 58.1%  6.6%  0.9% 26.8%  7.5%
[libx264 @ 0000000002833180] ref B L0: 60.8% 39.2%
[libx264 @ 0000000002833180] ref B L1: 93.4%  6.6%
[libx264 @ 0000000002833180] kb/s:532.30
26.85
4 @ 0000000002834be0] ref B L1: 79.1% 20.9%
[libx264 @ 0000000002834be0] kb/s:403.01
4 @ 0000000002924be0] ref B L1: 89.4% 10.6%
[libx264 @ 0000000002924be0] kb/s:390.29

4 @ 00000000027a4be0] ref B L1: 92.8%  7.2%
[libx264 @ 00000000027a4be0] kb/s:405.87
.2%
[libx264 @ 00000000027d4be0] ref B L1: 90.9%  9.1%
[libx264 @ 00000000027d4be0] kb/s:392.23

